<svg xmlns="http://www.w3.org/2000/svg" xmlns:xlink="http://www.w3.org/1999/xlink" width="1080" zoomAndPan="magnify" viewBox="0 0 810 1012.49997" height="1350" preserveAspectRatio="xMidYMid meet" version="1.0"><defs><g/><clipPath id="af56f40e87"><path d="M 293.097656 357.882812 L 517.238281 357.882812 L 517.238281 506.3125 L 293.097656 506.3125 Z M 293.097656 357.882812 " clip-rule="nonzero"/></clipPath><clipPath id="927429fdac"><path d="M 585.671875 458.042969 L 707.863281 458.042969 L 707.863281 587.726562 L 585.671875 587.726562 Z M 585.671875 458.042969 " clip-rule="nonzero"/></clipPath></defs><path fill="#000000" d="M 348.375 416.753906 C 345.863281 412.058594 337.160156 406.625 332.609375 403.492188 C 323.214844 397.027344 309.183594 387.4375 302.234375 378.757812 C 299.992188 375.953125 295.511719 369.027344 294.515625 365.695312 C 294.035156 364.09375 293.695312 361.503906 294.992188 360.1875 C 297.226562 357.914062 302.4375 358.886719 305.261719 358.796875 L 309.492188 358.796875 C 319.988281 359.484375 331.285156 367.730469 339.382812 373.835938 L 345.066406 377.660156 L 362.867188 390.632812 L 374.140625 398.769531 C 375.863281 399.996094 378.027344 401.769531 380.074219 402.257812 C 381.902344 402.691406 384.152344 402.15625 386.007812 401.910156 C 384.96875 400.617188 383.730469 399.402344 383.296875 397.75 C 382.289062 393.867188 385.84375 388.980469 388.976562 388.507812 C 392.210938 388.011719 400.183594 393.9375 402.621094 396.074219 C 404.949219 398.113281 405.828125 399.609375 409.148438 399.269531 L 432.289062 395.429688 L 487.46875 385.289062 C 487.46875 385.289062 501.710938 382.558594 501.710938 382.558594 C 504.402344 382.015625 507.941406 381.238281 510.609375 382.140625 C 513.183594 383.015625 514.988281 384.945312 516.542969 387.070312 L 485.097656 398.347656 L 485.691406 400.722656 L 475.011719 404.878906 L 475.601562 407.253906 C 474.234375 406.816406 473.539062 406.484375 472.042969 406.726562 L 458.394531 412.242188 C 456.101562 413.179688 453.785156 413.585938 453.054688 416.160156 C 447.652344 415.460938 448.058594 417.21875 443.664062 418.160156 C 438.109375 419.355469 436.144531 416.511719 430.507812 421.503906 L 428.136719 421.503906 L 430.507812 424.472656 L 426.949219 426.253906 L 427.542969 428.628906 C 423.503906 428.363281 423.460938 429.613281 419.828125 431.003906 L 419.828125 432.191406 L 440.597656 447.105469 C 442.300781 448.359375 447.839844 452.511719 449.496094 453.011719 C 451.625 453.648438 455.101562 452.09375 457.210938 451.386719 C 457.210938 451.386719 470.855469 447.035156 470.855469 447.035156 C 472.816406 446.386719 475.964844 445.097656 477.976562 445.453125 C 480 445.808594 484.777344 449.035156 484.960938 451.214844 C 485.054688 452.347656 484.1875 453.789062 483.65625 454.75 L 478.570312 464.25 C 478.570312 464.25 501.117188 461.710938 501.117188 461.710938 C 507.300781 460.945312 511.519531 459.210938 515.949219 464.84375 C 512.605469 466.074219 511.03125 465.820312 508.238281 468.40625 L 498.742188 472.398438 L 476.195312 481.46875 L 479.164062 488.59375 C 476.957031 489.222656 475.515625 489.335938 473.230469 488.90625 C 471.582031 488.605469 469.46875 487.570312 467.890625 488.136719 C 466.695312 488.558594 463.664062 491.347656 462.550781 492.320312 L 451.871094 501.578125 C 449.597656 503.53125 447.332031 506.351562 444.15625 504.878906 C 439.480469 502.707031 440.90625 500.320312 441.855469 496.3125 L 445.308594 480.875 C 445.691406 477.597656 443.816406 477.183594 441.191406 476.035156 L 428.136719 470.039062 C 424.167969 468.042969 418.109375 464.558594 414.488281 462.042969 C 408.953125 458.1875 406.164062 455.25 399.65625 452.96875 C 397.710938 452.289062 392.898438 449.890625 391.347656 450.019531 C 389.546875 450.175781 381.636719 455.308594 378.890625 456.53125 L 379.480469 458.90625 L 375.328125 458.90625 C 369.234375 455.855469 369.734375 463.210938 368.835938 464.84375 C 367.390625 467.46875 366.269531 467.265625 365.242188 470.78125 C 360.988281 471.804688 357.878906 477.914062 354.863281 480.875 C 351.519531 484.15625 349.007812 483.761719 346.191406 487.410156 C 344.613281 489.460938 340.503906 495.953125 338.488281 496.828125 C 335.347656 498.1875 333.160156 493.839844 328.453125 493.34375 L 336.851562 462.46875 C 337.394531 460.445312 340.167969 451.546875 339.789062 450.132812 C 339.34375 448.476562 336.421875 447.597656 334.980469 446.761719 C 331.4375 444.699219 322.503906 439.011719 322.710938 434.566406 C 322.757812 433.515625 323.179688 432.511719 323.691406 431.601562 C 327.195312 425.394531 330.703125 428.503906 336.167969 428.628906 C 337.308594 432.417969 341.1875 434.496094 344.476562 436.347656 C 345.804688 431.789062 350.539062 420.804688 348.375 416.753906 Z M 348.375 416.753906 " fill-opacity="1" fill-rule="nonzero"/><g clip-path="url(#af56f40e87)"><path stroke-linecap="butt" transform="matrix(0.593341, 0, 0, 0.593707, 293.79888, 358.359276)" fill="none" stroke-linejoin="miter" d="M 91.981043 98.356017 C 87.747864 90.447546 73.079864 81.295563 65.410106 76.018863 C 49.57683 65.129912 25.928959 48.977419 14.216943 34.357933 C 10.438024 29.633905 2.886769 17.968582 1.207981 12.356331 C 0.398213 9.658766 -0.17455 5.296606 2.011166 3.079339 C 5.776918 -0.749887 14.559284 0.88839 19.319142 0.737063 L 26.449054 0.737063 C 44.138873 1.895042 63.178306 15.784212 76.825866 26.067856 L 86.404833 32.509114 L 116.405765 54.359391 L 135.405697 68.064336 C 138.309013 70.130276 141.956262 73.117336 145.406007 73.939764 C 148.487077 74.670081 152.279163 73.768699 155.406318 73.354195 C 153.655111 71.176405 151.568147 69.130203 150.83738 66.347106 C 149.138842 59.807156 155.129811 51.576293 160.409765 50.780182 C 165.860888 49.944595 179.297777 59.925585 183.40587 63.524532 C 187.329626 66.958993 188.81091 69.478913 194.40687 68.906503 L 233.407423 62.438926 L 326.405703 45.358735 C 326.405703 45.358735 350.409081 40.759716 350.409081 40.759716 C 354.945101 39.845175 360.909737 38.535869 365.406255 40.055717 C 369.744771 41.529508 372.78634 44.779745 375.406566 48.358953 L 322.409528 67.353758 L 323.410218 71.35405 L 305.410976 78.35456 L 306.405082 82.354851 C 304.100863 81.617955 302.929003 81.058704 300.407529 81.466628 L 277.404839 90.756779 C 273.540335 92.335841 269.63633 93.020102 268.405218 97.355944 C 259.300261 96.178226 259.984944 99.138969 252.578525 100.72461 C 243.216813 102.737915 239.905321 97.948092 230.405355 106.3566 L 226.409181 106.3566 L 230.405355 111.356964 L 224.407802 114.357182 L 225.408491 118.357474 C 218.60117 117.910073 218.528752 120.015489 212.406113 122.357765 L 212.406113 124.357911 L 247.410491 149.478162 C 250.28089 151.590158 259.616269 158.584089 262.407665 159.426255 C 265.995663 160.498702 271.854963 157.88009 275.410044 156.689214 C 275.410044 156.689214 298.40615 149.359732 298.40615 149.359732 C 301.711058 148.267548 307.017345 146.096337 310.407839 146.695065 C 313.818083 147.293792 321.869683 152.728399 322.179107 156.399719 C 322.33711 158.307753 320.875577 160.735561 319.980223 162.3541 L 311.408529 178.355266 C 311.408529 178.355266 349.408392 174.078638 349.408392 174.078638 C 359.830045 172.789071 366.940207 169.867805 374.405876 179.355339 C 368.770415 181.427858 366.117271 181.000195 361.410081 185.355776 L 345.405634 192.07995 L 307.405771 207.357379 L 312.409218 219.358253 C 308.68955 220.417541 306.260245 220.608344 302.408907 219.884607 C 299.630678 219.377991 296.069013 217.634443 293.409286 218.58846 C 291.394741 219.299038 286.285958 223.996749 284.409665 225.635026 L 266.410423 241.228267 C 262.578836 244.51798 258.760416 249.268327 253.408044 246.787883 C 245.527615 243.129721 247.930586 239.109692 249.530373 232.3592 L 255.350172 206.357306 C 255.995353 200.837167 252.835281 200.139747 248.411181 198.205396 L 226.409181 188.105976 C 219.720362 184.743889 209.50938 178.87504 203.406491 174.63789 C 194.077696 168.143996 189.377089 163.196267 178.409007 159.353881 C 175.130432 158.209061 167.019581 154.169293 164.405939 154.386414 C 161.370953 154.649591 148.0394 163.294958 143.411212 165.354319 L 144.405318 169.35461 L 137.407075 169.35461 C 127.136842 164.216078 127.979528 176.605138 126.465327 179.355339 C 124.029438 183.776713 122.139979 183.434583 120.408523 189.356067 C 113.23911 191.079877 107.998657 201.3701 102.916208 206.357306 C 97.280747 211.884024 93.047568 211.219502 88.300876 217.364687 C 85.641149 220.818886 78.715325 231.753893 75.318248 233.227684 C 70.025128 235.517325 66.338377 228.194423 58.405281 227.358836 L 72.559769 175.355047 C 73.474873 171.946904 78.149146 156.95897 77.510548 154.577218 C 76.760031 151.787541 71.835586 150.30717 69.40628 148.899172 C 63.435061 145.425235 48.378636 135.84559 48.727561 128.358202 C 48.806562 126.588337 49.517579 124.897424 50.380015 123.364418 C 56.285399 112.909709 62.197367 118.146932 71.407659 118.357474 C 73.330036 124.739518 79.867435 128.239773 85.410727 131.358421 C 87.649112 123.68023 95.628293 105.178882 91.981043 98.356017 Z M 91.981043 98.356017 " stroke="#000000" stroke-width="1" stroke-opacity="1" stroke-miterlimit="4"/></g><g clip-path="url(#927429fdac)"><path fill="#000000" d="M 605.472656 458.441406 L 605.46875 458.441406 C 605.46875 458.441406 605.46875 458.441406 605.472656 458.441406 Z M 605.046875 501.105469 Z M 636.449219 524.785156 L 636.894531 525.144531 L 636.523438 525.382812 Z M 620.585938 546.113281 L 620.703125 546.117188 L 620.75 546.800781 L 620.703125 546.117188 Z M 620.753906 546.800781 Z M 676.035156 547.289062 C 676.394531 547.289062 676.75 547.308594 677.101562 547.34375 C 676.75 547.308594 676.394531 547.289062 676.035156 547.289062 C 675.679688 547.289062 675.3125 547.308594 674.945312 547.34375 C 675.3125 547.308594 675.679688 547.289062 676.035156 547.289062 Z M 665.238281 547.34375 C 665.328125 547.34375 665.445312 547.371094 665.589844 547.421875 C 665.445312 547.371094 665.328125 547.34375 665.238281 547.34375 C 665.144531 547.34375 665.078125 547.371094 665.039062 547.421875 C 665.078125 547.371094 665.144531 547.34375 665.238281 547.34375 Z M 664.273438 551.210938 L 664.269531 551.210938 C 664.269531 551.210938 664.273438 551.210938 664.273438 551.210938 Z M 638.96875 528.167969 L 661.816406 553.097656 L 661.417969 553.570312 L 660.457031 552.605469 L 638.480469 528.683594 L 638.941406 528.195312 Z M 641.769531 571.996094 C 641.804688 571.996094 641.832031 572 641.863281 572 C 641.832031 572 641.804688 571.996094 641.769531 571.996094 C 641.738281 571.996094 641.707031 572 641.671875 572 C 641.707031 572 641.738281 571.996094 641.769531 571.996094 Z M 610.359375 577.175781 Z M 691.746094 585.136719 C 691.742188 585.136719 691.738281 585.136719 691.734375 585.136719 C 691.734375 585.136719 691.730469 585.136719 691.726562 585.136719 Z M 694.988281 587.363281 C 694.984375 587.363281 694.984375 587.363281 694.980469 587.363281 C 694.976562 587.363281 694.976562 587.363281 694.972656 587.363281 Z M 695.308594 587.367188 C 695.3125 587.367188 695.3125 587.367188 695.316406 587.367188 C 695.320312 587.367188 695.320312 587.367188 695.324219 587.367188 C 695.324219 587.367188 695.320312 587.367188 695.316406 587.367188 C 695.3125 587.367188 695.3125 587.367188 695.308594 587.367188 Z M 605.558594 458.039062 C 604.527344 458.039062 602.902344 459.046875 600.6875 461.0625 C 599.683594 461.972656 599.089844 463.113281 598.902344 464.492188 C 598.65625 465.71875 598.617188 468.179688 598.78125 471.882812 C 598.828125 471.992188 598.878906 472.046875 598.929688 472.046875 C 599.015625 472.046875 599.113281 471.90625 599.214844 471.625 C 599.316406 472.835938 599.5625 473.757812 599.949219 474.394531 C 601.296875 477.144531 602.226562 478.523438 602.742188 478.523438 C 602.785156 478.523438 602.828125 478.511719 602.863281 478.492188 L 603.324219 480.457031 L 599.988281 482.625 C 599.648438 482.890625 599.378906 483.386719 599.179688 484.105469 C 598.820312 486.699219 598.988281 489.53125 599.6875 492.597656 L 599.234375 497.132812 C 597.660156 495.988281 596.253906 494.5 595.003906 492.667969 L 595.207031 491.773438 C 595.066406 491.546875 594.746094 491.320312 594.253906 491.089844 C 594.222656 489.703125 594.027344 488.714844 593.667969 488.132812 C 593.386719 487.621094 592.671875 487.332031 591.515625 487.261719 L 589.484375 484.164062 L 586.175781 484.4375 C 586.160156 484.4375 586.144531 484.4375 586.128906 484.4375 C 585.945312 484.4375 585.867188 484.535156 585.894531 484.734375 L 587.070312 486.9375 C 586.339844 487.667969 586.0625 488.128906 586.234375 488.324219 C 586.265625 488.675781 586.675781 489.183594 587.464844 489.839844 L 587.085938 491.195312 C 587.242188 491.53125 587.484375 491.722656 587.8125 491.765625 C 587.769531 492.378906 587.832031 492.789062 588 493 L 589.558594 494.777344 L 592.546875 495.355469 L 596.480469 502.300781 C 597.191406 503.332031 598.148438 504.34375 599.355469 505.332031 C 600.613281 506.339844 601.582031 506.847656 602.261719 506.847656 C 602.445312 506.847656 602.609375 506.808594 602.75 506.734375 C 604.59375 505.652344 605.496094 503.902344 605.457031 501.480469 L 607.015625 501.964844 C 607.328125 502.367188 607.671875 503.125 608.054688 504.238281 C 609.257812 507.769531 609.839844 510.050781 609.796875 511.082031 C 610.003906 511.636719 610.230469 511.941406 610.484375 512.007812 L 613.402344 521.085938 C 612.527344 524.082031 611.855469 530.023438 611.386719 538.910156 C 611.207031 543.285156 611.179688 546 611.296875 547.046875 L 612.464844 552.675781 L 611.875 557.699219 C 612.078125 562.847656 612.097656 566.148438 611.941406 567.609375 C 611.84375 569.5 611.527344 571.65625 610.996094 574.078125 C 610.90625 574.226562 611.011719 574.410156 611.304688 574.636719 L 610.347656 576.675781 C 610.128906 576.636719 609.953125 576.621094 609.816406 576.621094 C 609.582031 576.621094 609.476562 576.675781 609.5 576.792969 C 607.734375 579.097656 606.390625 580.65625 605.472656 581.46875 C 604.570312 582.402344 603.285156 582.871094 601.625 582.871094 C 601.4375 582.871094 601.242188 582.863281 601.042969 582.851562 C 600.644531 583.058594 600.402344 583.578125 600.316406 584.410156 C 600.257812 585.570312 600.496094 586.414062 601.03125 586.9375 C 604.015625 587.3125 606.0625 587.496094 607.171875 587.496094 C 607.1875 587.496094 607.203125 587.496094 607.21875 587.496094 C 607.289062 587.496094 607.359375 587.5 607.425781 587.5 C 608.574219 587.5 609.441406 587.375 610.027344 587.132812 L 613.292969 585.140625 L 613.460938 587.363281 L 613.679688 587.476562 L 619.625 587.355469 C 619.664062 587.367188 619.699219 587.371094 619.734375 587.371094 C 619.867188 587.371094 619.953125 587.289062 619.980469 587.128906 C 619.765625 585.445312 619.800781 583.074219 620.085938 580.019531 C 620.175781 579.609375 619.703125 578.753906 618.664062 577.453125 C 618.488281 577.109375 618.414062 576.527344 618.441406 575.703125 C 618.632812 570.925781 619.757812 565.332031 621.8125 558.921875 L 621.269531 548.433594 C 622.617188 550.554688 625.167969 553.238281 628.914062 556.480469 L 631.378906 559.777344 L 637.398438 566.667969 L 641.40625 572.3125 L 642.023438 572.527344 L 643.949219 575.703125 C 643.566406 576.296875 643.492188 576.59375 643.730469 576.59375 C 643.734375 576.59375 643.734375 576.59375 643.738281 576.59375 C 646.195312 579.035156 647.558594 580.667969 647.828125 581.496094 C 648.199219 581.957031 647.960938 583.160156 647.113281 585.101562 C 647.097656 585.566406 647.351562 586.082031 647.878906 586.648438 C 648.488281 586.972656 649.066406 587.132812 649.621094 587.132812 C 651.449219 587.132812 652.992188 585.359375 654.238281 581.8125 C 655.054688 580.742188 654.550781 578.539062 652.71875 575.199219 L 655.40625 575.242188 L 656.144531 569.226562 L 649.898438 567.582031 L 647.070312 567.710938 L 646.148438 566.882812 C 645.382812 566.308594 643.101562 562.277344 639.3125 554.78125 C 633.71875 549.390625 631.054688 546.296875 631.328125 545.5 L 629.222656 526.925781 C 631.675781 523.597656 632.46875 520.378906 631.605469 517.269531 L 632.867188 520.222656 C 632.617188 521.558594 632.636719 522.554688 632.925781 523.207031 L 634.714844 525.847656 C 634.925781 526.382812 634.863281 527.203125 634.53125 528.3125 L 634.695312 528.253906 L 634.664062 528.429688 C 634.691406 528.429688 634.71875 528.429688 634.746094 528.429688 C 635.171875 528.429688 635.671875 528.601562 636.25 528.945312 L 640.019531 532.832031 C 646.597656 540.617188 653.101562 547.894531 659.53125 554.664062 L 660.128906 555.441406 C 659.671875 556.441406 659.609375 557.332031 659.941406 558.109375 C 660.179688 558.816406 660.660156 559.578125 661.386719 560.394531 L 678.5 576.929688 L 684.316406 584.257812 C 684.339844 584.367188 684.402344 584.421875 684.511719 584.421875 C 684.609375 584.421875 684.738281 584.378906 684.90625 584.292969 C 684.980469 584.996094 685.285156 585.566406 685.824219 586.007812 C 686.230469 586.382812 686.800781 586.570312 687.53125 586.570312 C 687.640625 586.570312 687.753906 586.566406 687.867188 586.558594 C 688.546875 586.519531 689.128906 586.113281 689.609375 585.34375 C 690.640625 585.476562 691.390625 585.542969 691.859375 585.542969 C 692.238281 585.542969 692.433594 585.5 692.445312 585.414062 C 692.957031 586.964844 693.824219 587.742188 695.046875 587.742188 C 695.40625 587.742188 695.800781 587.675781 696.222656 587.539062 L 704.394531 579.5 L 705.039062 579.507812 L 707.644531 576.546875 C 707.667969 576.34375 707.585938 576.242188 707.394531 576.242188 C 707.382812 576.242188 707.371094 576.242188 707.359375 576.242188 L 704.828125 575.761719 L 704.476562 574.820312 C 705.539062 573.863281 705.832031 573.117188 705.367188 572.578125 C 704.164062 570.640625 702.917969 569.019531 701.628906 567.726562 C 700 565.902344 693.144531 559.449219 681.058594 548.367188 C 679.484375 547.382812 677.796875 546.890625 675.992188 546.890625 C 673.796875 546.890625 671.429688 547.621094 668.890625 549.082031 C 666.960938 547.621094 665.726562 546.894531 665.1875 546.894531 C 665.046875 546.894531 664.957031 546.941406 664.910156 547.042969 C 664.152344 547.25 663.542969 547.878906 663.085938 548.925781 C 662.839844 549.480469 663.074219 550.25 663.785156 551.234375 C 663.828125 551.304688 663.6875 551.476562 663.367188 551.753906 L 641.230469 527.976562 L 641.269531 527.34375 L 639.609375 525.550781 C 639.957031 524.1875 639.90625 523.210938 639.457031 522.617188 C 637.089844 520.515625 635.886719 519.203125 635.84375 518.6875 C 635.441406 517.875 634.945312 516.171875 634.351562 513.574219 C 638.355469 510.363281 640.417969 507.679688 640.535156 505.53125 C 640.671875 504.671875 640.476562 503.515625 639.957031 502.066406 L 636.269531 494.488281 C 633.3125 490.734375 630.511719 488.144531 627.871094 486.714844 C 629.105469 485.863281 629.351562 485.082031 628.601562 484.375 C 628.289062 484.214844 628.027344 484.136719 627.816406 484.136719 C 627.671875 484.136719 627.550781 484.175781 627.457031 484.25 L 624.582031 486.476562 C 621.621094 482.808594 619.6875 480.691406 618.777344 480.128906 L 611.121094 476.863281 C 610.871094 476.714844 610.804688 475.539062 610.917969 473.339844 C 612.960938 473.011719 613.917969 469.855469 613.796875 463.859375 C 613.523438 462.75 612.859375 461.71875 611.804688 460.769531 C 611.414062 460.398438 610.855469 460.210938 610.132812 460.210938 C 610.019531 460.210938 609.902344 460.214844 609.78125 460.222656 C 608.648438 458.839844 607.355469 458.121094 605.90625 458.0625 L 605.808594 458.0625 C 605.730469 458.046875 605.644531 458.039062 605.558594 458.039062 Z M 605.558594 458.039062 " fill-opacity="1" fill-rule="nonzero"/></g><g fill="#000000" fill-opacity="1"><g transform="translate(225.230978, 581.462688)"><g><path d="M 2 -69.96875 L 21.984375 -69.96875 L 21.984375 -62.765625 L 16.984375 -61.875 L 16.984375 -8.5 L 27.1875 -8.5 L 28.390625 -15 L 35.578125 -15 L 35.578125 0 L 2 0 L 2 -7.203125 L 7 -8.09375 L 7 -61.875 L 2 -62.765625 Z M 2 -69.96875 "/></g></g></g><g fill="#000000" fill-opacity="1"><g transform="translate(260.812038, 581.462688)"><g><path d="M 7 -61.875 L 2 -62.765625 L 2 -69.96875 L 21.984375 -69.96875 L 21.984375 -62.765625 L 16.984375 -61.875 L 16.984375 -15.1875 C 16.984375 -12.519531 17.734375 -10.488281 19.234375 -9.09375 C 20.734375 -7.695312 22.351562 -7 24.09375 -7 C 25.882812 -7 27.515625 -7.695312 28.984375 -9.09375 C 30.453125 -10.488281 31.1875 -12.519531 31.1875 -15.1875 L 31.1875 -61.875 L 26.1875 -62.765625 L 26.1875 -69.96875 L 46.171875 -69.96875 L 46.171875 -62.765625 L 41.1875 -61.875 L 41.1875 -16.59375 C 41.1875 -12.59375 40.351562 -9.257812 38.6875 -6.59375 C 37.019531 -3.925781 34.882812 -1.910156 32.28125 -0.546875 C 29.6875 0.816406 26.957031 1.5 24.09375 1.5 C 21.226562 1.5 18.492188 0.816406 15.890625 -0.546875 C 13.296875 -1.910156 11.164062 -3.925781 9.5 -6.59375 C 7.832031 -9.257812 7 -12.59375 7 -16.59375 Z M 7 -61.875 "/></g></g></g><g fill="#000000" fill-opacity="1"><g transform="translate(308.986388, 581.462688)"><g><path d="M 2 0 L 2 -7.203125 L 7.703125 -8.5 L 18.296875 -33.078125 L 6.703125 -61.765625 L 2.40625 -62.765625 L 2.40625 -69.96875 L 22.890625 -69.96875 L 22.890625 -62.765625 L 19.09375 -62.265625 L 24.6875 -48.28125 L 30.1875 -62.078125 L 24.890625 -62.765625 L 24.890625 -69.96875 L 45.375 -69.96875 L 45.375 -62.765625 L 39.6875 -61.46875 L 28.984375 -36.875 L 40.6875 -8.203125 L 44.984375 -7.203125 L 44.984375 0 L 24.484375 0 L 24.484375 -7.203125 L 28.1875 -7.703125 L 22.59375 -21.59375 L 17.09375 -7.890625 L 22.484375 -7.203125 L 22.484375 0 Z M 2 0 "/></g></g></g><g fill="#000000" fill-opacity="1"><g transform="translate(356.361168, 581.462688)"><g/></g></g><g fill="#000000" fill-opacity="1"><g transform="translate(377.749786, 581.462688)"><g><path d="M 0 -54.96875 L 0 -69.96875 L 34.984375 -69.96875 L 34.984375 -54.96875 L 27.78125 -54.96875 L 26.59375 -61.375 L 22.484375 -61.375 L 22.484375 -8.09375 L 27.484375 -7.203125 L 27.484375 0 L 7.5 0 L 7.5 -7.203125 L 12.5 -8.09375 L 12.5 -61.375 L 8.390625 -61.375 L 7.203125 -54.96875 Z M 0 -54.96875 "/></g></g></g><g fill="#000000" fill-opacity="1"><g transform="translate(412.731162, 581.462688)"><g><path d="M 2 -7.203125 L 7 -8.09375 L 7 -61.875 L 2 -62.765625 L 2 -69.96875 L 21.984375 -69.96875 C 25.585938 -69.96875 28.65625 -69.203125 31.1875 -67.671875 C 33.71875 -66.140625 35.679688 -64.125 37.078125 -61.625 C 38.484375 -59.125 39.351562 -56.421875 39.6875 -53.515625 C 40.019531 -50.617188 39.816406 -47.753906 39.078125 -44.921875 C 38.347656 -42.097656 37.082031 -39.566406 35.28125 -37.328125 C 33.476562 -35.097656 31.144531 -33.484375 28.28125 -32.484375 C 29.8125 -31.085938 30.8125 -29.457031 31.28125 -27.59375 L 36.578125 -8.390625 L 42.484375 -7.203125 L 42.484375 0 L 28.484375 0 L 21.6875 -27.59375 C 21.425781 -28.59375 20.910156 -29.441406 20.140625 -30.140625 C 19.367188 -30.835938 18.316406 -31.253906 16.984375 -31.390625 L 16.984375 -8.09375 L 21.984375 -7.203125 L 21.984375 0 L 2 0 Z M 21.984375 -61.375 L 16.984375 -61.375 L 16.984375 -39.984375 L 21.984375 -39.984375 C 24.117188 -39.984375 25.800781 -40.695312 27.03125 -42.125 C 28.269531 -43.5625 29.101562 -45.34375 29.53125 -47.46875 C 29.96875 -49.601562 29.96875 -51.738281 29.53125 -53.875 C 29.101562 -56.007812 28.253906 -57.789062 26.984375 -59.21875 C 25.722656 -60.65625 24.054688 -61.375 21.984375 -61.375 Z M 21.984375 -61.375 "/></g></g></g><g fill="#000000" fill-opacity="1"><g transform="translate(457.207486, 581.462688)"><g><path d="M 2 -7.203125 L 7.203125 -8.203125 L 14.390625 -61.875 L 9.703125 -62.765625 L 9.703125 -69.96875 L 29.59375 -69.96875 L 37.875 -8.203125 L 42.984375 -7.203125 L 42.984375 0 L 24.484375 0 L 24.484375 -7.203125 L 28.1875 -7.890625 L 26.78125 -21.390625 L 18.296875 -21.390625 L 16.796875 -7.890625 L 20.484375 -7.203125 L 20.484375 0 L 2 0 Z M 19.1875 -29.984375 L 25.890625 -29.984375 L 22.484375 -59.96875 Z M 19.1875 -29.984375 "/></g></g></g><g fill="#000000" fill-opacity="1"><g transform="translate(502.183533, 581.462688)"><g><path d="M 7.09375 -61.765625 L 2 -62.765625 L 2 -69.96875 L 20.484375 -69.96875 L 20.484375 -62.765625 L 16.890625 -62.078125 L 22.484375 -10 L 28.09375 -62.078125 L 24.484375 -62.765625 L 24.484375 -69.96875 L 42.984375 -69.96875 L 42.984375 -62.765625 L 37.78125 -61.765625 L 29.484375 0 L 15.390625 0 Z M 7.09375 -61.765625 "/></g></g></g><g fill="#000000" fill-opacity="1"><g transform="translate(547.15958, 581.462688)"><g><path d="M 35.578125 0 L 2 0 L 2 -7.203125 L 7 -8.09375 L 7 -61.875 L 2 -62.765625 L 2 -69.96875 L 35.578125 -69.96875 L 35.578125 -54.96875 L 28.390625 -54.96875 L 27.1875 -61.375 L 16.984375 -61.375 L 16.984375 -39.984375 L 28.390625 -39.984375 L 28.390625 -31.390625 L 16.984375 -31.390625 L 16.984375 -8.5 L 27.1875 -8.5 L 28.390625 -15 L 35.578125 -15 Z M 35.578125 0 "/></g></g></g></svg>