<svg xmlns="http://www.w3.org/2000/svg" xmlns:xlink="http://www.w3.org/1999/xlink" zoomAndPan="magnify" viewBox="0 15.1875 58.925781 59.675781" fill="#000000" preserveAspectRatio="xMidYMid meet">
  <defs>
    <clipPath id="8214d7745e">
      <path d="M 0.261719 15.1875 L 59.1875 15.1875 L 59.1875 74.863281 L 0.261719 74.863281 Z M 0.261719 15.1875 " clip-rule="nonzero"/>
    </clipPath>
  </defs>
  <g clip-path="url(#8214d7745e)">
    <path d="M 29.691406 15.195312 C 13.441406 15.195312 0.269531 28.367188 0.269531 44.617188 L 0.269531 69.972656 C 0.269531 72.851562 2.601562 75.1875 5.480469 75.1875 C 17.523438 75.1875 27.289062 65.421875 27.289062 53.378906 L 27.289062 52.023438 L 25.011719 53.003906 C 24.117188 53.390625 23.117188 52.730469 23.117188 51.757812 L 23.117188 51.40625 C 23.117188 50.15625 26.695312 47.910156 26.695312 46.832031 L 26.695312 38.847656 C 26.695312 38.847656 13.96875 44.167969 12.640625 43.667969 C 11.308594 43.171875 10.808594 40.675781 13.304688 39.179688 C 15.800781 37.679688 26.695312 29.695312 26.695312 29.695312 C 26.113281 19.546875 29.691406 19.882812 29.691406 19.882812 C 29.691406 19.882812 33.269531 19.550781 32.6875 29.695312 C 32.6875 29.695312 43.582031 37.679688 46.078125 39.179688 C 48.570312 40.675781 48.074219 43.171875 46.742188 43.667969 C 45.410156 44.167969 32.6875 38.847656 32.6875 38.847656 L 32.6875 46.832031 C 32.6875 47.910156 36.261719 50.15625 36.261719 51.40625 L 36.261719 51.757812 C 36.261719 52.730469 35.265625 53.386719 34.371094 53.003906 L 32.09375 52.023438 L 32.09375 53.378906 C 32.09375 65.421875 41.855469 75.1875 53.902344 75.1875 C 56.777344 75.1875 59.113281 72.851562 59.113281 69.972656 L 59.113281 44.617188 C 59.113281 28.367188 45.941406 15.195312 29.691406 15.195312 Z M 29.691406 15.195312 " fill-opacity="1" fill-rule="nonzero"/>
  </g>
</svg>
